<svg width="18" height="24" viewBox="0 0 18 24" fill="none" xmlns="http://www.w3.org/2000/svg">
<path d="M15 1H3C1.89543 1 1 1.75767 1 2.69231V14.5385C1 15.4731 1.89543 16.2308 3 16.2308H15C16.1046 16.2308 17 15.4731 17 14.5385V2.69231C17 1.75767 16.1046 1 15 1Z" stroke="#7878AB" stroke-linecap="round" stroke-linejoin="round"/>
<path d="M6 5.23096V11.154M12 5.23096V11.154M12 16.231V20.4617C12 21.135 11.6839 21.7806 11.1213 22.2567C10.5587 22.7327 9.79565 23.0002 9 23.0002C8.20435 23.0002 7.44129 22.7327 6.87868 22.2567C6.31607 21.7806 6 21.135 6 20.4617V16.231" stroke="#7878AB" stroke-linecap="round" stroke-linejoin="round"/>
</svg>
