<svg width="12" height="19" viewBox="0 0 12 19" fill="none" xmlns="http://www.w3.org/2000/svg">
<path d="M3.47852 18.8438C3.15039 18.8438 2.89258 18.7552 2.70508 18.5781C2.51758 18.401 2.42643 18.1536 2.43164 17.8359L2.58008 9.0625C2.58008 8.92708 2.55143 8.8099 2.49414 8.71094C2.43685 8.60677 2.3457 8.52865 2.2207 8.47656C1.87695 8.32552 1.5957 8.16146 1.37695 7.98438C1.16341 7.80208 1.00977 7.57031 0.916016 7.28906C0.822266 7.00781 0.785807 6.63802 0.806641 6.17969L1.01758 1.38281C1.02799 1.21094 1.08008 1.07812 1.17383 0.984375C1.26758 0.890625 1.39518 0.84375 1.55664 0.84375C1.71289 0.84375 1.83268 0.893229 1.91602 0.992188C2.00456 1.08594 2.04883 1.22135 2.04883 1.39844L1.99414 6.0625C1.99414 6.35938 2.13997 6.50781 2.43164 6.50781C2.56185 6.50781 2.66862 6.47135 2.75195 6.39844C2.84049 6.32031 2.88477 6.21615 2.88477 6.08594L2.96289 1.25781C2.96289 1.09115 3.00977 0.960938 3.10352 0.867188C3.19727 0.773438 3.32227 0.726562 3.47852 0.726562C3.63997 0.726562 3.76497 0.773438 3.85352 0.867188C3.94727 0.960938 3.99674 1.09115 4.00195 1.25781L4.08008 6.08594C4.08008 6.21615 4.12174 6.32031 4.20508 6.39844C4.28841 6.47135 4.39779 6.50781 4.5332 6.50781C4.6582 6.50781 4.75977 6.46875 4.83789 6.39062C4.92122 6.3125 4.96289 6.20312 4.96289 6.0625L4.9082 1.39844C4.9082 1.22135 4.95247 1.08594 5.04102 0.992188C5.12956 0.893229 5.24935 0.84375 5.40039 0.84375C5.74414 0.84375 5.92383 1.02344 5.93945 1.38281L6.1582 6.17969C6.17383 6.63802 6.13477 7.00781 6.04102 7.28906C5.94727 7.57031 5.79102 7.80208 5.57227 7.98438C5.35872 8.16146 5.08008 8.32552 4.73633 8.47656C4.61654 8.52865 4.52539 8.60677 4.46289 8.71094C4.4056 8.8099 4.37695 8.92708 4.37695 9.0625L4.5332 17.8359C4.5332 18.1536 4.43945 18.401 4.25195 18.5781C4.06445 18.7552 3.80664 18.8438 3.47852 18.8438ZM9.5957 12.0312C9.60091 11.8906 9.56966 11.7656 9.50195 11.6562C9.43945 11.5417 9.34049 11.4349 9.20508 11.3359L8.73633 11.0234C8.54362 10.8932 8.39779 10.7292 8.29883 10.5312C8.19987 10.3333 8.15039 10.099 8.15039 9.82812V9.44531C8.15039 8.66406 8.19987 7.88281 8.29883 7.10156C8.39779 6.32031 8.53841 5.56771 8.7207 4.84375C8.9082 4.11458 9.12956 3.44531 9.38477 2.83594C9.63997 2.22135 9.92383 1.69271 10.2363 1.25C10.3665 1.06771 10.4863 0.934896 10.5957 0.851562C10.7051 0.768229 10.8327 0.726562 10.9785 0.726562C11.1243 0.726562 11.2546 0.776042 11.3691 0.875C11.4837 0.96875 11.541 1.11458 11.541 1.3125V17.8828C11.541 18.1953 11.4447 18.4323 11.252 18.5938C11.0592 18.7604 10.7988 18.8438 10.4707 18.8438C10.1478 18.8438 9.88997 18.7526 9.69727 18.5703C9.50456 18.3932 9.41341 18.1354 9.42383 17.7969L9.5957 12.0312Z" fill="#999999"/>
</svg>
