<svg width="22" height="19" viewBox="0 0 22 19" fill="none" xmlns="http://www.w3.org/2000/svg">
<path d="M10.3746 9.87016C10.4329 9.64867 10.5645 9.44694 10.7533 9.29002C10.8113 9.23987 10.8791 9.19908 10.9535 9.16955L10.9608 9.16796C11.1965 9.20301 11.4385 9.15592 11.6346 9.03689C11.8307 8.91785 11.9651 8.73641 12.0089 8.53178C12.0527 8.32714 12.0022 8.11573 11.8684 7.94322C11.7346 7.77071 11.5283 7.65095 11.294 7.60981C10.5621 7.47507 9.91042 7.80477 9.50992 8.13289C9.07847 8.4832 8.72713 8.98568 8.59241 9.54363C8.56779 9.64553 8.56646 9.75065 8.58849 9.85299C8.61052 9.95533 8.65549 10.0529 8.72083 10.1401C8.78616 10.2273 8.87059 10.3025 8.96928 10.3613C9.06797 10.4201 9.17899 10.4614 9.29602 10.4828C9.41304 10.5042 9.53376 10.5054 9.6513 10.4862C9.76884 10.467 9.88089 10.4279 9.98104 10.371C10.0812 10.3141 10.1675 10.2406 10.235 10.1547C10.3026 10.0687 10.35 9.97206 10.3746 9.87016ZM11.4778 15.2278C12.2667 15.2278 13.0479 15.0925 13.7768 14.8296C14.5056 14.5668 15.1679 14.1815 15.7257 13.6957C16.2836 13.21 16.7261 12.6334 17.028 11.9987C17.3299 11.3641 17.4853 10.6839 17.4853 9.99697C17.4853 9.31005 17.3299 8.62985 17.028 7.99521C16.7261 7.36058 16.2836 6.78393 15.7257 6.29821C15.1679 5.81248 14.5056 5.42718 13.7768 5.1643C13.0479 4.90143 12.2667 4.76613 11.4778 4.76613C9.88454 4.76613 8.35652 5.31723 7.2299 6.29821C6.10328 7.27918 5.47035 8.60967 5.47035 9.99697C5.47035 11.3843 6.10328 12.7148 7.2299 13.6957C8.35652 14.6767 9.88454 15.2278 11.4778 15.2278ZM11.4778 13.6427C10.3674 13.6427 9.30237 13.2586 8.51715 12.5749C7.73193 11.8912 7.29079 10.9639 7.29079 9.99697C7.29079 9.03006 7.73193 8.10275 8.51715 7.41904C9.30237 6.73534 10.3674 6.35123 11.4778 6.35123C12.5883 6.35123 13.6533 6.73534 14.4385 7.41904C15.2237 8.10275 15.6648 9.03006 15.6648 9.99697C15.6648 10.9639 15.2237 11.8912 14.4385 12.5749C13.6533 13.2586 12.5883 13.6427 11.4778 13.6427ZM13.1217 0.017152C14.5526 0.0979924 15.9033 0.468907 16.8791 1.00467C19.0673 2.20777 19.8701 3.311 20.5691 4.37144C21.2682 5.43504 22 6.79031 22 8.8874C22 9.87016 21.8744 10.3615 21.7706 10.7737L21.7524 10.845C21.665 11.1858 21.594 11.4965 21.6687 12.2938C21.751 13.3694 21.5323 14.4464 21.0315 15.4323C20.5382 16.4198 19.7554 17.3439 18.6959 17.9209C16.5423 19.0939 13.9427 19.3475 11.5051 18.4995C10.422 18.1222 10.0888 18.0477 9.72473 18.0271C9.445 18.0181 9.16494 18.0207 8.88551 18.035H8.87458C8.48865 18.0477 7.98621 18.0652 7.29079 18.0652C4.14142 18.0652 2.04791 16.4214 0.984771 14.6413C-0.564429 12.0465 -0.537122 8.09485 2.90352 5.72828C3.91933 5.03084 4.19058 4.81843 4.50733 4.35875C5.07713 3.53291 5.62327 2.87668 6.28955 2.30763C6.95765 1.73699 7.71496 1.28048 8.67433 0.822385C10.0961 0.14079 11.6835 -0.0652735 13.1217 0.017152ZM13.0015 1.59909C11.8364 1.53251 10.6095 1.7037 9.54997 2.21094C8.68708 2.62306 8.07905 3.00032 7.56568 3.43939C7.04686 3.88005 6.59174 4.41423 6.06928 5.1735C5.55955 5.91216 5.03708 6.28307 4.03038 6.97259C1.46173 8.73999 1.3343 11.7897 2.60133 13.9106C3.43145 15.3023 4.98065 16.4785 7.29079 16.4785C7.95162 16.4785 8.42675 16.4642 8.80905 16.4515H8.84182C9.20408 16.4388 9.5263 16.4277 9.8376 16.4452C10.5257 16.4832 11.1028 16.6528 12.1805 17.0285C14.0574 17.6816 16.049 17.4913 17.7329 16.5767C18.3992 16.2122 18.9726 15.5781 19.364 14.7983C19.7517 14.0216 19.9247 13.1656 19.8555 12.4238C19.7627 11.4505 19.8555 10.9797 19.9738 10.5058L19.9939 10.4265C20.0849 10.0683 20.1796 9.69897 20.1796 8.8874C20.1796 7.16598 19.6007 6.08652 18.989 5.16082C18.3773 4.23036 17.7565 3.36172 15.907 2.34567C15.2243 1.97 14.1775 1.66566 13.0015 1.59909Z" fill="#787878"/>
</svg>
