<svg width="57" height="57" viewBox="0 0 57 57" fill="none" xmlns="http://www.w3.org/2000/svg">
<path d="M22.3254 24.9376L33.6541 5.32006C30.151 4.53774 26.5161 4.56091 23.0232 5.38784C19.5304 6.21476 16.2709 7.82386 13.4904 10.0938L22.1829 25.1751L22.3254 24.9376ZM51.1579 21.3751C48.9729 14.4401 43.6766 8.88256 36.9079 6.31756L28.2154 21.3751H51.1579ZM51.7754 23.7501H33.9866L34.6754 24.9376L45.9804 44.5313C50.0197 40.171 52.2596 34.4438 52.2504 28.5001C52.2504 26.8613 52.0841 25.2938 51.7754 23.7501ZM20.2829 28.5001L11.0204 12.4688C8.47559 15.2249 6.62288 18.5468 5.61526 22.1602C4.60763 25.7736 4.474 29.5748 5.22539 33.2501H23.0141L20.2829 28.5001ZM5.84289 35.6251C8.02789 42.5601 13.3241 48.1176 20.0929 50.6826L28.7854 35.6251H5.84289ZM32.6091 35.6251L23.3466 51.6801C26.8497 52.4624 30.4847 52.4392 33.9776 51.6123C37.4704 50.7854 40.7299 49.1763 43.5104 46.9063L34.8179 31.8251L32.6091 35.6251Z" fill="white"/>
</svg>
