<svg width="19" height="17" viewBox="0 0 19 17" fill="none" xmlns="http://www.w3.org/2000/svg">
<path d="M11.5078 15.6484V10.4844C11.5078 10.3021 11.4531 10.1589 11.3438 10.0547C11.2396 9.94531 11.0964 9.89062 10.9141 9.89062H8.07812C7.90104 9.89062 7.75521 9.94531 7.64062 10.0547C7.53125 10.1589 7.47656 10.3021 7.47656 10.4844V15.6484H11.5078ZM2.60938 15.1797V8.99219L9.03125 3.60938C9.34375 3.34375 9.65625 3.34375 9.96875 3.60938L16.3906 8.99219V15.1797C16.3906 15.7266 16.2344 16.151 15.9219 16.4531C15.6146 16.7552 15.1875 16.9062 14.6406 16.9062H4.36719C3.8151 16.9062 3.38281 16.7552 3.07031 16.4531C2.76302 16.151 2.60938 15.7266 2.60938 15.1797ZM0.171875 8.21094C0.171875 8.00781 0.255208 7.83854 0.421875 7.70312L8.5625 0.867188C8.85417 0.622396 9.16667 0.5 9.5 0.5C9.83854 0.5 10.1536 0.622396 10.4453 0.867188L18.5781 7.70312C18.7396 7.83854 18.8203 8.01562 18.8203 8.23438C18.8203 8.42188 18.7552 8.57031 18.625 8.67969C18.4948 8.78385 18.3385 8.83594 18.1562 8.83594C18.0469 8.83594 17.9453 8.8099 17.8516 8.75781C17.763 8.70573 17.6797 8.64844 17.6016 8.58594L9.78125 2.02344C9.69271 1.94531 9.59896 1.90625 9.5 1.90625C9.40625 1.90625 9.3151 1.94531 9.22656 2.02344L1.40625 8.58594C1.32292 8.64844 1.23438 8.70573 1.14062 8.75781C1.05208 8.8099 0.953125 8.83594 0.84375 8.83594C0.635417 8.83594 0.471354 8.77344 0.351562 8.64844C0.231771 8.51823 0.171875 8.3724 0.171875 8.21094ZM14.4297 4.6875V2.73438C14.4297 2.5625 14.4818 2.42708 14.5859 2.32812C14.6901 2.22396 14.8255 2.17188 14.9922 2.17188H15.8281C16 2.17188 16.1354 2.22396 16.2344 2.32812C16.3385 2.42708 16.3906 2.5625 16.3906 2.73438V6.34375L14.4297 4.6875Z" fill="#007AFF"/>
</svg>
