<svg width="50" height="50" viewBox="0 0 50 50" fill="none" xmlns="http://www.w3.org/2000/svg">
<path d="M23.7503 18.7501H40.417C39.4795 16.3542 38.0469 14.2966 36.1191 12.5772C34.1913 10.8577 31.9781 9.65147 29.4795 8.95842L23.7503 18.7501ZM18.9587 22.9167L27.292 8.54175C26.91 8.4723 26.5281 8.42022 26.1462 8.3855C25.7642 8.35078 25.3823 8.33342 25.0003 8.33342C22.7087 8.33342 20.5732 8.76744 18.5941 9.6355C16.6149 10.5036 14.8614 11.6667 13.3337 13.1251L18.9587 22.9167ZM8.85449 29.1667H20.2087L11.8753 14.7917C10.7642 16.2154 9.89616 17.7869 9.27116 19.5063C8.64616 21.2258 8.33366 23.057 8.33366 25.0001C8.33366 25.7292 8.37741 26.432 8.46491 27.1084C8.55241 27.7848 8.68227 28.4709 8.85449 29.1667ZM20.5212 41.0418L26.1462 31.2501H9.58366C10.5212 33.6459 11.9538 35.7036 13.8816 37.423C15.8094 39.1424 18.0226 40.3487 20.5212 41.0418ZM25.0003 41.6668C27.292 41.6668 29.4274 41.2327 31.4066 40.3647C33.3857 39.4966 35.1392 38.3334 36.667 36.8751L31.042 27.0834L22.7087 41.4584C23.0906 41.5279 23.4635 41.5799 23.8274 41.6147C24.1913 41.6494 24.5823 41.6668 25.0003 41.6668ZM38.1253 35.2084C39.2364 33.7848 40.1045 32.2133 40.7295 30.4938C41.3545 28.7744 41.667 26.9431 41.667 25.0001C41.667 24.2709 41.6232 23.5681 41.5357 22.8917C41.4482 22.2154 41.3184 21.5292 41.1462 20.8334H29.792L38.1253 35.2084ZM25.0003 45.8334C22.1531 45.8334 19.4621 45.2862 16.9274 44.1918C14.3927 43.0973 12.1788 41.6043 10.2857 39.7126C8.39408 37.8209 6.90102 35.6077 5.80658 33.073C4.71213 30.5383 4.16561 27.8473 4.16699 25.0001C4.16699 22.1181 4.71422 19.4181 5.80866 16.9001C6.90311 14.382 8.39616 12.1779 10.2878 10.2876C12.1795 8.39453 14.392 6.90147 16.9253 5.80842C19.4587 4.71536 22.1503 4.16814 25.0003 4.16675C27.8823 4.16675 30.5823 4.71397 33.1003 5.80842C35.6184 6.90286 37.8226 8.39592 39.7128 10.2876C41.6059 12.1792 43.0989 14.3841 44.192 16.9022C45.285 19.4202 45.8323 22.1195 45.8337 25.0001C45.8337 27.8473 45.2864 30.5383 44.192 33.073C43.0975 35.6077 41.6045 37.8216 39.7128 39.7147C37.8212 41.6063 35.6163 43.0994 33.0982 44.1938C30.5802 45.2883 27.8809 45.8348 25.0003 45.8334Z" fill="#F8F8F8"/>
</svg>
