<svg width="21" height="22" viewBox="0 0 21 22" fill="none" xmlns="http://www.w3.org/2000/svg">
<path d="M1.12956 9H18.9945M13.3658 1.032L13.2363 1L1.35989 8.776C1.25652 8.83661 1.16904 8.92594 1.10597 9.0353C1.0429 9.14465 1.00639 9.2703 1 9.4V20.136C1 20.3482 1.07583 20.5517 1.21082 20.7017C1.3458 20.8517 1.52888 20.936 1.71978 20.936H18.9945C19.1854 20.936 19.3685 20.8517 19.5035 20.7017C19.6385 20.5517 19.7143 20.3482 19.7143 20.136V8.936C19.4928 7.06225 18.7687 5.30608 17.6363 3.89627C16.504 2.48646 15.0159 1.48836 13.3658 1.032Z" stroke="#7878AB" stroke-linecap="round" stroke-linejoin="round"/>
<path d="M1 16.4719L1.11516 16.3599C1.38181 16.0575 1.6998 15.817 2.05069 15.6522C2.40158 15.4874 2.77841 15.4017 3.15934 15.3999C3.92293 15.3999 4.65525 15.737 5.19519 16.3372C5.73513 16.9373 6.03846 17.7512 6.03846 18.5999C6.03525 19.4472 5.7298 20.2585 5.18912 20.8559L5.07396 20.9999" stroke="#7878AB" stroke-linecap="round" stroke-linejoin="round"/>
<path d="M13.2365 17C14.4291 17 15.3958 15.9254 15.3958 14.6C15.3958 13.2745 14.4291 12.2 13.2365 12.2C12.0439 12.2 11.0771 13.2745 11.0771 14.6C11.0771 15.9254 12.0439 17 13.2365 17Z" stroke="#7878AB" stroke-linecap="round" stroke-linejoin="round"/>
</svg>
