<svg width="20" height="19" viewBox="0 0 20 19" fill="none" xmlns="http://www.w3.org/2000/svg">
<path d="M10 1C9.68351 1.22717 9.42707 1.52797 9.25285 1.87642C9.07862 2.22488 8.99184 2.6105 9 3C8.99184 3.3895 9.07862 3.77512 9.25285 4.12358C9.42707 4.47203 9.68351 4.77283 10 5M14 1C13.6835 1.22717 13.4271 1.52797 13.2528 1.87642C13.0786 2.22488 12.9918 2.6105 13 3C12.9918 3.3895 13.0786 3.77512 13.2528 4.12358C13.4271 4.47203 13.6835 4.77283 14 5M6 1C5.68351 1.22717 5.42707 1.52797 5.25285 1.87642C5.07862 2.22488 4.99184 2.6105 5 3C4.99184 3.3895 5.07862 3.77512 5.25285 4.12358C5.42707 4.47203 5.68351 4.77283 6 5M2 8H18C18.2652 8 18.5196 8.10536 18.7071 8.29289C18.8946 8.48043 19 8.73478 19 9V9.5C19 11 16.483 15.073 15 16V17C15 17.2652 14.8946 17.5196 14.7071 17.7071C14.5196 17.8946 14.2652 18 14 18H6C5.73478 18 5.48043 17.8946 5.29289 17.7071C5.10536 17.5196 5 17.2652 5 17V16C3.313 14.946 1 11 1 9.5V9C1 8.73478 1.10536 8.48043 1.29289 8.29289C1.48043 8.10536 1.73478 8 2 8Z" stroke="#787878" stroke-width="2" stroke-linecap="round" stroke-linejoin="round"/>
</svg>
