<svg width="14" height="20" viewBox="0 0 14 20" fill="none" xmlns="http://www.w3.org/2000/svg">
<path d="M3.55469 8.77344C3.41927 8.77344 3.30208 8.72656 3.20312 8.63281C3.10938 8.53385 3.0625 8.41927 3.0625 8.28906C3.0625 8.15365 3.10938 8.03906 3.20312 7.94531C3.30208 7.84635 3.41927 7.79688 3.55469 7.79688H10.4453C10.5807 7.79688 10.6953 7.84635 10.7891 7.94531C10.888 8.03906 10.9375 8.15365 10.9375 8.28906C10.9375 8.41927 10.888 8.53385 10.7891 8.63281C10.6953 8.72656 10.5807 8.77344 10.4453 8.77344H3.55469ZM3.55469 11.5469C3.41406 11.5469 3.29688 11.5 3.20312 11.4062C3.10938 11.3073 3.0625 11.1901 3.0625 11.0547C3.0625 10.9245 3.10938 10.8125 3.20312 10.7188C3.29688 10.625 3.41406 10.5781 3.55469 10.5781H10.4453C10.5859 10.5781 10.7031 10.625 10.7969 10.7188C10.8906 10.8125 10.9375 10.9245 10.9375 11.0547C10.9375 11.1901 10.8906 11.3073 10.7969 11.4062C10.7031 11.5 10.5859 11.5469 10.4453 11.5469H3.55469ZM3.55469 14.4688C3.41927 14.4688 3.30208 14.4219 3.20312 14.3281C3.10938 14.2292 3.0625 14.1146 3.0625 13.9844C3.0625 13.849 3.10938 13.7344 3.20312 13.6406C3.29688 13.5469 3.41406 13.5 3.55469 13.5H7.02344C7.15885 13.5 7.27344 13.5469 7.36719 13.6406C7.46094 13.7344 7.50781 13.849 7.50781 13.9844C7.50781 14.1146 7.45833 14.2292 7.35938 14.3281C7.26562 14.4219 7.15365 14.4688 7.02344 14.4688H3.55469ZM2.85156 19.375C2.04427 19.375 1.4375 19.1693 1.03125 18.7578C0.630208 18.3516 0.429688 17.7396 0.429688 16.9219V5.07812C0.429688 4.27604 0.622396 3.66667 1.00781 3.25C1.39844 2.83333 1.98438 2.625 2.76562 2.625H2.95312C2.94792 2.65625 2.94531 2.6901 2.94531 2.72656C2.94531 2.75781 2.94531 2.78906 2.94531 2.82031V3.52344C2.94531 3.66927 2.95573 3.78906 2.97656 3.88281H2.78906C2.42448 3.88281 2.14844 3.99219 1.96094 4.21094C1.77865 4.42969 1.6875 4.72396 1.6875 5.09375V16.9062C1.6875 17.2969 1.78906 17.5964 1.99219 17.8047C2.20052 18.013 2.50781 18.1172 2.91406 18.1172H11.0859C11.4922 18.1172 11.7969 18.013 12 17.8047C12.2083 17.5964 12.3125 17.2969 12.3125 16.9062V5.09375C12.3125 4.72396 12.2188 4.42969 12.0312 4.21094C11.849 3.99219 11.5755 3.88281 11.2109 3.88281H11.0234C11.0443 3.78906 11.0547 3.66927 11.0547 3.52344V2.82031C11.0547 2.78906 11.0547 2.75781 11.0547 2.72656C11.0547 2.6901 11.0521 2.65625 11.0469 2.625H11.2344C12.0156 2.625 12.599 2.83333 12.9844 3.25C13.375 3.66667 13.5703 4.27604 13.5703 5.07812V16.9219C13.5703 17.7396 13.3672 18.3516 12.9609 18.7578C12.5599 19.1693 11.9557 19.375 11.1484 19.375H2.85156ZM4.58594 4.41406C4.35677 4.41406 4.17708 4.34635 4.04688 4.21094C3.92188 4.07552 3.85938 3.88542 3.85938 3.64062V2.82031C3.85938 2.57552 3.92188 2.38542 4.04688 2.25C4.17708 2.11458 4.35677 2.04688 4.58594 2.04688H5.30469C5.33073 1.60417 5.50521 1.22656 5.82812 0.914062C6.15625 0.601562 6.54688 0.445312 7 0.445312C7.45312 0.445312 7.84115 0.601562 8.16406 0.914062C8.49219 1.22656 8.66927 1.60417 8.69531 2.04688H9.41406C9.64323 2.04688 9.82031 2.11458 9.94531 2.25C10.0755 2.38542 10.1406 2.57552 10.1406 2.82031V3.64062C10.1406 3.88542 10.0755 4.07552 9.94531 4.21094C9.82031 4.34635 9.64323 4.41406 9.41406 4.41406H4.58594ZM7 2.78906C7.1875 2.78906 7.34635 2.72135 7.47656 2.58594C7.61198 2.45052 7.67969 2.29167 7.67969 2.10938C7.67969 1.91667 7.61198 1.75521 7.47656 1.625C7.34635 1.48958 7.1875 1.42188 7 1.42188C6.8125 1.42188 6.65104 1.48958 6.51562 1.625C6.38542 1.75521 6.32031 1.91667 6.32031 2.10938C6.32031 2.29167 6.38542 2.45052 6.51562 2.58594C6.65104 2.72135 6.8125 2.78906 7 2.78906Z" fill="#999999"/>
</svg>
