<svg width="21" height="20" viewBox="0 0 21 20" fill="none" xmlns="http://www.w3.org/2000/svg">
<path d="M5.25 17.5399V18.9487C5.25 19.2275 5.36062 19.4949 5.55754 19.6921C5.75445 19.8892 6.02152 20 6.3 20H14.7C14.9785 20 15.2455 19.8892 15.4425 19.6921C15.6394 19.4949 15.75 19.2275 15.75 18.9487V17.5399C17.3462 16.6172 18.6716 15.2901 19.5932 13.692C20.5148 12.0938 21 10.2809 21 8.43555C21 8.15672 20.8894 7.88932 20.6925 7.69216C20.4955 7.495 20.2285 7.38423 19.95 7.38423C19.9308 6.74054 19.7469 6.11256 19.416 5.56036C19.0851 5.00815 18.6182 4.55019 18.06 4.23029C17.9261 3.31453 17.4671 2.47776 16.7671 1.87338C16.067 1.269 15.1729 0.93751 14.2485 0.939678C13.894 0.939067 13.541 0.985016 13.1985 1.07635C12.4758 0.385484 11.515 0 10.5157 0C9.51653 0 8.55573 0.385484 7.833 1.07635C7.49047 0.985016 7.13746 0.939067 6.783 0.939678C5.85504 0.932428 4.9558 1.26162 4.25136 1.86646C3.54692 2.4713 3.08485 3.31093 2.9505 4.23029C2.39034 4.54888 1.92136 5.00627 1.58856 5.55856C1.25576 6.11086 1.07031 6.73952 1.05 7.38423C0.771523 7.38423 0.504451 7.495 0.307538 7.69216C0.110625 7.88932 0 8.15672 0 8.43555C4.68218e-05 10.2809 0.485235 12.0938 1.4068 13.692C2.32836 15.2901 3.65384 16.6172 5.25 17.5399ZM4.3155 5.97547L5.187 5.70213L5.019 4.75595C5.02174 4.52952 5.069 4.30586 5.15808 4.09772C5.24716 3.88959 5.37632 3.70106 5.53817 3.54291C5.70003 3.38475 5.89142 3.26007 6.1014 3.17598C6.31139 3.09189 6.53586 3.05004 6.762 3.05282C7.06523 3.05108 7.36434 3.12325 7.6335 3.26308L8.484 3.73617L9.009 2.92666C9.17319 2.68164 9.39509 2.48085 9.65512 2.34201C9.91514 2.20316 10.2053 2.13054 10.5 2.13054C10.7947 2.13054 11.0849 2.20316 11.3449 2.34201C11.6049 2.48085 11.8268 2.68164 11.991 2.92666L12.516 3.73617L13.3665 3.26308C13.6357 3.12325 13.9348 3.05108 14.238 3.05282C14.6922 3.0471 15.1304 3.22018 15.4584 3.53478C15.7863 3.84939 15.9778 4.28037 15.9915 4.73492L15.8235 5.62854L16.6845 5.92291C17.0021 6.02243 17.2828 6.21473 17.4904 6.47511C17.6981 6.7355 17.8233 7.05208 17.85 7.38423H3.15C3.17667 7.05208 3.30188 6.7355 3.50955 6.47511C3.71723 6.21473 3.99789 6.02243 4.3155 5.92291V5.97547ZM18.837 9.48686C18.6618 10.8633 18.1493 12.1749 17.345 13.3048C16.5407 14.4348 15.4697 15.348 14.2275 15.963C14.0527 16.0511 13.9061 16.1864 13.804 16.3536C13.702 16.5208 13.6486 16.7132 13.65 16.9091V17.8974H7.35V16.9091C7.35136 16.7132 7.29801 16.5208 7.19597 16.3536C7.09393 16.1864 6.94726 16.0511 6.7725 15.963C5.53026 15.348 4.45927 14.4348 3.65501 13.3048C2.85074 12.1749 2.33818 10.8633 2.163 9.48686H18.837Z" fill="#787878"/>
</svg>
