<svg width="19" height="22" viewBox="0 0 19 22" fill="none" xmlns="http://www.w3.org/2000/svg">
<path d="M2.64355 9.46191L3.93096 19.6465C3.97668 20.0218 4.16008 20.3672 4.44616 20.6169C4.73224 20.8666 5.10099 21.0031 5.48206 21.0004H13.5943C13.9754 21.0031 14.3441 20.8666 14.6302 20.6169C14.9163 20.3672 15.0997 20.0218 15.1454 19.6465L16.4173 9.46191" stroke="#7878AB" stroke-linecap="round" stroke-linejoin="round"/>
<path d="M15.7354 4.95401C15.5468 4.95696 15.3593 4.98279 15.177 5.03093C15.3187 4.6946 15.3925 4.33393 15.3942 3.9694C15.3659 3.16681 15.0223 2.40699 14.4369 1.85221C13.8515 1.29743 13.0706 0.991652 12.2609 1.00017C11.6998 1.00166 11.1495 1.15411 10.6687 1.44129C10.188 1.72847 9.79478 2.13962 9.53102 2.63094C9.26726 2.13962 8.87406 1.72847 8.39332 1.44129C7.91258 1.15411 7.36229 1.00166 6.80109 1.00017C5.99681 0.999685 5.22378 1.30903 4.64503 1.86298C4.06628 2.41692 3.72705 3.17216 3.69891 3.9694C3.70054 4.33393 3.77432 4.6946 3.91606 5.03093C3.72374 4.98023 3.52563 4.95438 3.32664 4.95401C2.70958 4.95401 2.11779 5.19714 1.68146 5.62992C1.24513 6.06269 1 6.64966 1 7.2617C1 7.87374 1.24513 8.46071 1.68146 8.89348C2.11779 9.32626 2.70958 9.56939 3.32664 9.56939C3.68161 9.56999 4.03237 9.49312 4.35404 9.34423C4.67571 9.19534 4.96041 8.97808 5.18796 8.70785C5.35644 9.1604 5.66105 9.55068 6.06055 9.82585C6.46005 10.101 6.93515 10.2478 7.42153 10.2463C7.84441 10.255 8.26211 10.1529 8.63249 9.95035C9.00287 9.74776 9.31281 9.45184 9.53102 9.09247C9.74576 9.43996 10.0467 9.72706 10.4052 9.92636C10.7636 10.1257 11.1675 10.2305 11.5785 10.2309C12.0648 10.2324 12.5399 10.0856 12.9394 9.81047C13.3389 9.5353 13.6436 9.14502 13.812 8.69247C14.0396 8.96269 14.3243 9.17996 14.646 9.32885C14.9676 9.47774 15.3184 9.5546 15.6734 9.554C16.2904 9.554 16.8822 9.31087 17.3185 8.8781C17.7549 8.44532 18 7.85835 18 7.24631C18 6.63428 17.7549 6.04731 17.3185 5.61453C16.8822 5.18176 16.2904 4.93863 15.6734 4.93863L15.7354 4.95401Z" stroke="#7878AB" stroke-linecap="round" stroke-linejoin="round"/>
</svg>
