<svg width="13" height="21" viewBox="0 0 13 21" fill="none" xmlns="http://www.w3.org/2000/svg">
<path d="M2.03613 20.5947C1.43262 20.5947 0.943359 20.4014 0.568359 20.0146C0.193359 19.6338 0.00585938 19.127 0.00585938 18.4941V2.80566C0.00585938 2.17285 0.193359 1.66602 0.568359 1.28516C0.943359 0.898438 1.43262 0.705078 2.03613 0.705078H10.623C11.2324 0.705078 11.7246 0.898438 12.0996 1.28516C12.4746 1.66602 12.6621 2.17285 12.6621 2.80566V18.4941C12.6621 19.127 12.4746 19.6338 12.0996 20.0146C11.7246 20.4014 11.2324 20.5947 10.623 20.5947H2.03613ZM2.10645 19.1797H10.5615C10.7666 19.1797 10.9307 19.1152 11.0537 18.9863C11.1826 18.8633 11.2471 18.6963 11.2471 18.4854V2.82324C11.2471 2.6123 11.1826 2.44238 11.0537 2.31348C10.9307 2.18457 10.7666 2.12012 10.5615 2.12012H2.10645C1.90137 2.12012 1.73438 2.18457 1.60547 2.31348C1.48242 2.44238 1.4209 2.6123 1.4209 2.82324V18.4854C1.4209 18.6963 1.48242 18.8633 1.60547 18.9863C1.73438 19.1152 1.90137 19.1797 2.10645 19.1797ZM3.05566 5.9873C2.9209 5.9873 2.8125 5.94629 2.73047 5.86426C2.64844 5.78223 2.60742 5.67383 2.60742 5.53906V3.59668C2.60742 3.46191 2.64844 3.35352 2.73047 3.27148C2.8125 3.18945 2.9209 3.14844 3.05566 3.14844C3.18457 3.14844 3.29004 3.18945 3.37207 3.27148C3.4541 3.35352 3.49512 3.46191 3.49512 3.59668V5.53906C3.49512 5.67383 3.4541 5.78223 3.37207 5.86426C3.29004 5.94629 3.18457 5.9873 3.05566 5.9873ZM1.05176 8.49219V7.34082H11.625V8.49219H1.05176ZM3.05566 12.166C2.9209 12.166 2.8125 12.125 2.73047 12.043C2.64844 11.9609 2.60742 11.8555 2.60742 11.7266V9.77539C2.60742 9.64648 2.64844 9.54102 2.73047 9.45898C2.8125 9.37695 2.9209 9.33594 3.05566 9.33594C3.18457 9.33594 3.29004 9.37695 3.37207 9.45898C3.4541 9.54102 3.49512 9.64648 3.49512 9.77539V11.7266C3.49512 11.8555 3.4541 11.9609 3.37207 12.043C3.29004 12.125 3.18457 12.166 3.05566 12.166ZM1.05176 17.8965V16.7451H11.625V17.8965H1.05176Z" fill="#999999"/>
</svg>
